<?xml version="1.0" encoding="utf-8"?>
<!-- Generator: Adobe Illustrator 25.0.1, SVG Export Plug-In . SVG Version: 6.00 Build 0)  -->
<svg version="1.1" id="layer" xmlns="http://www.w3.org/2000/svg" xmlns:xlink="http://www.w3.org/1999/xlink" x="0px" y="0px"
	 viewBox="0 0 600.1 174" style="enable-background:new 0 0 600.1 174;" xml:space="preserve">
<style type="text/css">
	.st0{fill:#D24D57;}
	.st1{fill:#446CB3;}
</style>
<path class="st0" d="M106.1,131.3l17.1,29.5l8.2-5.1l2.9-9.8L116,114.2L106.1,131.3z M50.9,14.5l-8.1,7l21.6,37.3l9.9-17L54.6,7.7
	L50.9,14.5z M69.4,105.8l-24,41.5l3,11l7.4,5.2l34.6-59.9l9.9-17.1l38.3-66.4l-6.4-8.8L130,8.2l-9.3,8.6L69.4,105.8z"/>
<path class="st1" d="M50.1,0l-9.9,17.1l0,0L9.9,69.6l0,0L0,86.7l50,86.7l9.9-17.1L19.7,86.7l40.2-69.6h28.8L98.6,0L50.1,0L50.1,0z
	 M120.7,17.1l40.2,69.6l-40.2,69.6H92l-9.9,17.1h48.5l9.9-17.1l30.2-52.5l9.9-17.1l-9.9-17.2l-30.3-52.4L130.6,0L120.7,17.1z"/>
<path class="st1" d="M265.4,55.6l-18.3,26.7l-18.4-26.7h-14.6l25.5,35.8l-26.8,37.5h14.6l19.7-28.2l19.6,28.2h14.6l-26.8-37.5
	L280,55.6H265.4z M320.8,65.2c5.3,0,9.5,1.7,12.3,5.1c2.7,3.3,4.2,8,4.3,14.2H302c0.7-5.9,2.6-10.6,5.7-14
	C311,67,315.4,65.2,320.8,65.2 M321,54.3c-9.8,0-17.7,3.5-23.6,10.5c-5.8,6.9-8.7,16.4-8.7,28s3.2,20.9,9.4,27.4
	c6.3,6.6,14.9,9.9,25.7,9.9c4.9,0,9.1-0.4,12.6-1.1s7.2-1.9,11-3.6l0.6-0.2v-11.7l-1.3,0.6c-7.4,3.2-14.9,4.7-22.5,4.7
	c-7,0-12.5-2.1-16.3-6.2c-3.7-4-5.7-9.9-6.1-17.5H351v-7.8c0-9.8-2.7-17.9-8.1-23.9C337.6,57.4,330.2,54.3,321,54.3 M402.3,54.3
	c-5,0-9.7,1-13.8,3c-3.6,1.8-6.6,4.2-8.8,7.2l-1.6-8.9h-10.5v73.3h12.7V90.5c0-9,1.7-15.6,5-19.4s8.6-5.7,15.7-5.7
	c5.4,0,9.3,1.3,11.8,4s3.7,6.9,3.7,12.4v47.1h12.7V81.4c0-9.3-2.3-16.3-6.8-20.6C417.9,56.5,411.2,54.3,402.3,54.3 M477.6,119.3
	c-6.2,0-10.8-2.2-14-6.6c-3.2-4.5-4.8-11.2-4.8-20.1c0-8.8,1.6-15.6,4.9-20.4c3.2-4.7,7.7-7,13.8-7c7.1,0,12.2,2.1,15.4,6.1
	c3.2,4.1,4.9,11.2,4.9,21.1v2.3c0,8.7-1.6,15-4.8,18.9C489.8,117.4,484.7,119.3,477.6,119.3z M497.7,55.7l0.3,5.1l0.3,3.2
	c-5.3-6.4-12.7-9.7-22.1-9.7c-9.6,0-17.1,3.4-22.5,10.1c-5.3,6.7-8,16.1-8,28s2.7,21.3,8,27.8c5.4,6.6,12.9,9.9,22.5,9.9
	c9.7,0,17.2-3.4,22.4-10.1l1.3,8.8h10.5V25.6h-12.7V55.7L497.7,55.7z M537.9,29.1c-2.1,0-3.8,0.7-5.2,2s-2.1,3.4-2.1,6.1
	s0.7,4.7,2.1,6.1c1.4,1.4,3.1,2.1,5.2,2.1c2,0,3.7-0.7,5.1-2c1.4-1.4,2.2-3.4,2.2-6.1s-0.7-4.7-2.2-6.1
	C541.6,29.7,539.9,29.1,537.9,29.1 M531.5,128.9h12.7V55.6h-12.7V128.9z M598.9,118.2c-1,0.3-2.4,0.6-4.1,0.9
	c-1.7,0.3-3.5,0.4-5.4,0.4c-3.3,0-5.8-1-7.7-3.1s-2.8-5.2-2.8-9.3V66h20.8V55.7h-20.8V39.1H571l-4.6,15.5L556,59.2v6.7h10.2v41.6
	c0,15.1,7.3,22.8,21.7,22.8c1.9,0,4-0.2,6.3-0.6c2.4-0.4,4.2-0.9,5.4-1.5l0.5-0.3v-10.1L598.9,118.2L598.9,118.2z"/>
</svg>
